<?xml version="1.0" encoding="UTF-8"?>
<!DOCTYPE svg PUBLIC "-//W3C//DTD SVG 1.1//EN" "http://www.w3.org/Graphics/SVG/1.1/DTD/svg11.dtd">
<!-- Creator: CorelDRAW -->
<svg xmlns="http://www.w3.org/2000/svg" xml:space="preserve" width="137.19mm" height="137.188mm" version="1.1" style="shape-rendering:geometricPrecision; text-rendering:geometricPrecision; image-rendering:optimizeQuality; fill-rule:evenodd; clip-rule:evenodd"
viewBox="0 0 4480.79 4480.73"
 xmlns:xlink="http://www.w3.org/1999/xlink"
 xmlns:xodm="http://www.corel.com/coreldraw/odm/2003">
 <defs>
  <style type="text/css">
   <![CDATA[
    .fil4 {fill:#2A3056}
    .fil3 {fill:#30376B}
    .fil0 {fill:#2F3254}
    .fil2 {fill:#373F83}
    .fil1 {fill:#34396B}
    .fil7 {fill:url(#id5);fill-rule:nonzero}
    .fil9 {fill:url(#id6);fill-rule:nonzero}
    .fil6 {fill:url(#id7);fill-rule:nonzero}
    .fil5 {fill:url(#id8);fill-rule:nonzero}
    .fil8 {fill:url(#id9);fill-rule:nonzero}
   ]]>
  </style>
     <clipPath id="id0">
      <path d="M2240.4 4480.73c-1237.36,0 -2240.4,-1003.03 -2240.4,-2240.34 0,-1237.33 1003.03,-2240.4 2240.4,-2240.4 1237.3,0 2240.39,1003.07 2240.39,2240.4 0,1237.3 -1003.1,2240.34 -2240.39,2240.34zm0 -4371.45c-1176.99,0 -2131.12,954.12 -2131.12,2131.12 0,1176.96 954.12,2131.08 2131.12,2131.08 1176.99,0 2131.08,-954.12 2131.08,-2131.08 0,-1176.99 -954.1,-2131.12 -2131.08,-2131.12z"/>
     </clipPath>
     <clipPath id="id1">
      <path d="M2240.4 3824.57c-874.94,0 -1584.23,-709.29 -1584.23,-1584.17 0,-874.97 709.29,-1584.2 1584.23,-1584.2 874.9,0 1584.17,709.23 1584.17,1584.2 0,874.88 -709.26,1584.17 -1584.17,1584.17zm0 -3091.11c-832.29,0 -1506.94,674.69 -1506.94,1506.94 0,832.26 674.66,1506.91 1506.94,1506.91 832.23,0 1506.88,-674.66 1506.88,-1506.91 0,-832.26 -674.66,-1506.94 -1506.88,-1506.94z"/>
     </clipPath>
      <clipPath id="id2">
       <path d="M3080.71 3135.44c-40.53,5.74 -80.93,12.35 -121.18,19.81 -118.04,21.66 -232.23,49.45 -345.31,90.05 -40.14,16.94 -80.23,33.71 -118.33,54.98 -81.75,45.64 -161.13,113.45 -213.79,191.09 -1.42,2.09 -2.16,3.14 -4.13,4.56 4.35,-13.64 13.87,-27.57 21.1,-40.03 54.06,-93.14 143.65,-167.23 238.54,-216.24 47.23,-24.4 99.66,-46.83 151.38,-59.36 115.97,-32.15 234.57,-48 354.62,-53.93 39.35,-1.95 78.79,-1.13 118.05,-2.96 -12.92,5.61 -63.54,9.49 -80.95,12.03zm-1680.71 0c40.54,5.74 80.94,12.35 121.18,19.81 118.04,21.66 232.23,49.45 345.31,90.05 40.14,16.94 80.23,33.71 118.32,54.98 81.75,45.64 161.14,113.45 213.79,191.09 1.42,2.09 2.16,3.14 4.13,4.56 -4.35,-13.64 -13.87,-27.57 -21.1,-40.03 -54.07,-93.14 -143.66,-167.23 -238.55,-216.24 -47.22,-24.4 -99.66,-46.83 -151.37,-59.36 -115.97,-32.15 -234.57,-48 -354.62,-53.93 -39.35,-1.95 -78.79,-1.13 -118.05,-2.96 12.91,5.61 63.54,9.49 80.95,12.03z"/>
      </clipPath>
      <clipPath id="id3">
       <path d="M2325.62 3518.13c12.23,-19.77 26.66,-35.88 43.69,-51.53 70.1,-64.47 187.11,-114.16 278.28,-138.78 191,-55.94 390.44,-79.11 581.99,-132.96 26.42,-7.43 52.51,-16.53 78.54,-25.19l10.13 29.37 -604.99 210.1c-121.98,42.32 -243.71,86.26 -366.28,126.75 -11.04,52.45 -20.31,94.89 -67.9,125.93 -12.27,8 -25.5,14.13 -38.72,20.35 -13.22,-6.22 -26.45,-12.35 -38.72,-20.35 -47.6,-31.04 -56.87,-73.48 -67.9,-125.93 -122.56,-40.49 -244.3,-84.43 -366.28,-126.75l-604.99 -210.1 10.12 -29.37c26.03,8.65 52.12,17.75 78.54,25.19 191.55,53.86 390.99,77.03 581.99,132.96 91.17,24.62 208.18,74.31 278.28,138.78 17.03,15.65 31.46,31.76 43.69,51.53 25.91,23.35 46.08,52.65 85.26,52.29 39.18,0.35 59.36,-28.95 85.26,-52.29z"/>
      </clipPath>
     <clipPath id="id4">
      <path d="M2173.24 2099.61c0.41,-0.4 0.73,-0.82 1.25,-1.15 0,1.04 0,1.98 -0.09,3.03 -0.42,-0.62 -0.75,-1.25 -1.16,-1.88zm848.86 -679.47c5.35,5.95 8.61,13.83 8.61,22.47 0,12.7 -7.04,23.77 -17.43,29.48l216.16 622.89 27.92 0c-81.13,164.08 -486.5,113.83 -511.76,0l28.48 0 205.33 -623.74c-9.58,-5.92 -15.96,-16.53 -15.96,-28.63 0,-8.98 3.53,-17.13 9.24,-23.16 -188.55,-71.8 -407.28,-208.65 -638.39,-124.31 24.21,18.89 30.16,78.35 -1.47,103.72 9.39,22.72 -1.76,66.67 -26.71,64.38 -5.52,49.22 -6.04,396.12 -2.19,556.57 8.24,12.21 13.15,26.91 13.15,42.78 0,13.46 -3.45,26.09 -9.61,37.02 21.92,18.8 35.69,46.63 35.69,77.72 0,56.55 -45.79,102.47 -102.33,102.47 -0.16,0 -0.31,0 -0.47,0 -0.16,0 -0.32,0 -0.49,0 -56.52,0 -102.33,-45.92 -102.33,-102.47 0,-31.08 13.79,-58.92 35.69,-77.72 -6.16,-10.93 -9.6,-23.56 -9.6,-37.02 0,-15.87 4.9,-30.57 13.14,-42.78 3.85,-160.45 3.33,-507.35 -2.19,-556.57 -24.94,2.29 -36.1,-41.65 -26.71,-64.38 -31.63,-25.36 -25.66,-84.83 -1.47,-103.72 -233.55,-85.24 -454.42,55.41 -644.31,126.56 4.56,5.73 7.29,13.01 7.29,20.91 0,13.02 -7.39,24.33 -18.22,29.91l216.02 622.46 27.92 0c-81.13,164.08 -486.5,113.83 -511.76,0l28.48 0 205.49 -624.25c-9.14,-6 -15.18,-16.36 -15.18,-28.12 0,-9.26 3.73,-17.63 9.77,-23.71 -74.07,-31.55 -6.6,-145.04 18.27,-73.9 -34.64,-38.49 -47.15,49.15 -5.43,41.11 3.01,-15.77 14.61,-20.14 14.61,-20.14 10.52,5.64 13.14,20.14 13.14,20.14 190.09,-59.99 365.45,-251.52 673.02,-176.83 71.25,-50.28 53.84,-109.65 43.08,-116.65 -112.15,-78.86 -2.29,-112.86 29,-232.75 0.4,-1.44 1.57,-2.16 2.78,-2.2 1.21,0.04 2.36,0.76 2.76,2.2 31.3,119.9 141.15,153.89 29.01,232.75 -10.76,7 -28.17,66.37 43.08,116.65 307.56,-74.69 482.91,116.84 673.02,176.83 0,0 2.6,-14.49 13.14,-20.14 0,0 11.58,4.37 14.61,20.14 41.71,8.04 29.22,-79.6 -5.44,-41.11 24.94,-71.35 92.75,43 17.64,74.18l-6.08 0.95zm-1555.98 674.84l-82.69 0 -115.17 0 197.85 -602.37c1.54,-2.76 4.38,-4.48 7.5,-4.64 3.13,-0.12 6.13,1.37 7.86,3.95l209.25 603.06 -121.92 0 -87.33 0 -15.36 0zm1522.27 0l-82.69 0 -115.17 0 197.85 -602.37c1.54,-2.76 4.38,-4.48 7.5,-4.64 3.13,-0.12 6.13,1.37 7.86,3.95l209.25 603.06 -121.92 0 -87.33 0 -15.36 0zm-747.55 206.18c28.57,0 54.66,-11.77 73.32,-30.86 4.5,72.93 10.14,133.52 16.92,167.34l0.82 0 0 96.09 -17.52 0c-10.75,68.94 -22.63,131.77 -21.59,196.06 0,185.7 87.74,244.12 87.74,244.12 0,0 -88.79,87.33 -126.34,208.45 2.07,2.82 3.34,6.38 3.34,10.11 0,7.2 -4.29,13.27 -10.33,15.77l0 -243.2c9.17,-3.01 15.74,-11.46 15.74,-21.47 0,-10.12 -6.57,-18.7 -15.74,-21.5l0 -97.95 -6.83 -9.29 -6.84 9.29 0 97.95c-9.18,2.81 -15.75,11.38 -15.75,21.5 0,10.01 6.57,18.46 15.75,21.47l0 243.2c-6.04,-2.5 -10.33,-8.57 -10.33,-15.77 0,-3.73 1.25,-7.29 3.33,-10.11 -37.55,-121.12 -126.33,-208.45 -126.33,-208.45 0,0 87.74,-58.42 87.74,-244.12 1.04,-64.28 -10.85,-127.11 -21.59,-196.06l-17.54 0 0 -96.09 0.82 0c6.79,-33.82 12.43,-94.41 16.92,-167.34 18.66,19.09 44.75,30.86 73.32,30.86 0.16,0 0.32,0 0.49,0 0.16,0 0.31,0 0.47,0zm66.65 -201.56c-0.41,-0.4 -0.72,-0.82 -1.25,-1.15 0,1.04 0,1.98 0.1,3.03 0.43,-0.62 0.73,-1.25 1.15,-1.88z"/>
     </clipPath>
  <linearGradient id="id5" gradientUnits="userSpaceOnUse" x1="1280.81" y1="3322.13" x2="3199.91" y2="3322.13">
   <stop offset="0" style="stop-opacity:1; stop-color:#D1A25C"/>
   <stop offset="1" style="stop-opacity:1; stop-color:#8A6838"/>
  </linearGradient>
  <linearGradient id="id6" gradientUnits="userSpaceOnUse" xlink:href="#id5" x1="1186.23" y1="2631.04" x2="1776.73" y2="2631.04">
  </linearGradient>
  <linearGradient id="id7" gradientUnits="userSpaceOnUse" xlink:href="#id5" x1="1211.81" y1="462.92" x2="3285.75" y2="462.92">
  </linearGradient>
  <linearGradient id="id8" gradientUnits="userSpaceOnUse" xlink:href="#id5" x1="210.52" y1="2522.27" x2="4258.85" y2="2522.27">
  </linearGradient>
  <linearGradient id="id9" gradientUnits="userSpaceOnUse" xlink:href="#id5" x1="2667.06" y1="2640.31" x2="3340.44" y2="2640.31">
  </linearGradient>
 </defs>
 <g id="Katman_x0020_1">
  <metadata id="CorelCorpID_0Corel-Layer"/>
  <g id="_1944407201840">
   <g>
    <g style="clip-path:url(#id0)">
     <path class="fil0" d="M4826.65 3609.83c332.5,1106.64 -295.06,2273.3 -1401.7,2605.8 -1106.64,332.5 -2273.3,-295.05 -2605.8,-1401.69 -332.5,-1106.64 295.06,-2273.3 1401.7,-2605.8 1106.64,-332.5 2273.3,295.05 2605.8,1401.69z"/>
     <path id="_1" class="fil1" d="M4158.73 3810.52c-221.67,-737.76 -999.44,-1156.13 -1737.2,-934.47 -737.76,221.67 -1156.13,999.44 -934.46,1737.2 221.67,737.76 999.44,1156.13 1737.2,934.46 737.76,-221.67 1156.13,-999.44 934.46,-1737.2zm2003.75 -602.05c554.17,1844.4 -491.76,3788.83 -2336.16,4343 -1844.4,554.18 -3788.83,-491.76 -4343,-2336.16 -554.18,-1844.4 491.76,-3788.83 2336.16,-4343 1844.4,-554.18 3788.83,491.76 4343,2336.16z"/>
     <path id="_2" class="fil2" d="M5494.56 3409.15c-443.34,-1475.52 -1998.88,-2312.26 -3474.4,-1868.93 -1475.52,443.34 -2312.27,1998.88 -1868.93,3474.4 443.34,1475.52 1998.88,2312.27 3474.4,1868.93 1475.52,-443.34 2312.26,-1998.88 1868.93,-3474.4zm2003.75 -602.05c775.84,2582.16 -688.47,5304.36 -3270.63,6080.2 -2582.16,775.84 -5304.36,-688.47 -6080.2,-3270.62 -775.84,-2582.16 688.46,-5304.36 3270.62,-6080.2 2582.16,-775.84 5304.36,688.47 6080.2,3270.62z"/>
     <path id="_3" class="fil3" d="M6830.39 3007.78c-665.01,-2213.28 -2998.32,-3468.4 -5211.6,-2803.39 -2213.28,665.01 -3468.4,2998.32 -2803.39,5211.6 665.01,2213.28 2998.32,3468.4 5211.6,2803.39 2213.28,-665.01 3468.4,-2998.32 2803.39,-5211.6zm2003.75 -602.05c997.52,3319.92 -885.17,6819.89 -4205.08,7817.4 -3319.92,997.51 -6819.89,-885.17 -7817.4,-4205.09 -997.52,-3319.92 885.17,-6819.89 4205.09,-7817.4 3319.92,-997.51 6819.89,885.17 7817.4,4205.09z"/>
     <path id="_4" class="fil4" d="M8166.23 2606.41c-886.68,-2951.04 -3997.76,-4624.53 -6948.8,-3737.85 -2951.04,886.68 -4624.53,3997.76 -3737.86,6948.8 886.68,2951.04 3997.76,4624.53 6948.8,3737.85 2951.04,-886.68 4624.54,-3997.76 3737.86,-6948.8zm1335.83 -401.37c1108.35,3688.8 -983.52,7577.65 -4672.32,8686 -3688.8,1108.35 -7577.66,-983.52 -8686,-4672.32 -1108.35,-3688.8 983.52,-7577.65 4672.32,-8686 3688.8,-1108.35 7577.66,983.52 8686,4672.32z"/>
    </g>
   </g>
   <g>
    <g style="clip-path:url(#id1)">
     <path class="fil0" d="M4069.13 3208.75c235.12,782.52 -208.63,1607.47 -991.15,1842.59 -782.52,235.12 -1607.47,-208.63 -1842.59,-991.15 -235.12,-782.52 208.63,-1607.47 991.15,-1842.59 782.52,-235.11 1607.47,208.64 1842.59,991.15z"/>
     <path id="_1_477" class="fil1" d="M3596.84 3350.65c-156.75,-521.68 -706.72,-817.51 -1228.39,-660.77 -521.68,156.75 -817.51,706.72 -660.77,1228.39 156.75,521.68 706.72,817.51 1228.39,660.77 521.68,-156.75 817.51,-706.72 660.77,-1228.39zm1416.87 -425.72c391.86,1304.19 -347.72,2679.12 -1651.92,3070.98 -1304.19,391.86 -2679.12,-347.73 -3070.98,-1651.92 -391.86,-1304.19 347.72,-2679.12 1651.92,-3070.98 1304.19,-391.86 2679.12,347.72 3070.98,1651.92z"/>
     <path id="_2_478" class="fil2" d="M4541.42 3066.84c-313.49,-1043.35 -1413.43,-1635.03 -2456.78,-1321.53 -1043.35,313.49 -1635.03,1413.43 -1321.53,2456.78 313.49,1043.35 1413.43,1635.03 2456.78,1321.53 1043.35,-313.49 1635.03,-1413.43 1321.53,-2456.78zm1416.87 -425.72c548.61,1825.87 -486.82,3750.76 -2312.69,4299.37 -1825.87,548.61 -3750.76,-486.82 -4299.37,-2312.69 -548.61,-1825.87 486.82,-3750.76 2312.69,-4299.37 1825.87,-548.61 3750.76,486.82 4299.37,2312.69z"/>
     <path id="_3_479" class="fil3" d="M5486 2783.03c-470.24,-1565.03 -2120.15,-2452.54 -3685.18,-1982.3 -1565.03,470.24 -2452.54,2120.15 -1982.3,3685.18 470.24,1565.03 2120.15,2452.54 3685.18,1982.3 1565.03,-470.24 2452.54,-2120.15 1982.3,-3685.18zm1416.87 -425.72c705.35,2347.55 -625.91,4822.41 -2973.45,5527.76 -2347.55,705.35 -4822.41,-625.91 -5527.76,-2973.45 -705.35,-2347.55 625.91,-4822.41 2973.45,-5527.76 2347.55,-705.35 4822.41,625.91 5527.76,2973.45z"/>
     <path id="_4_480" class="fil4" d="M6430.58 2499.21c-626.98,-2086.71 -2826.86,-3270.05 -4913.57,-2643.07 -2086.71,626.98 -3270.05,2826.86 -2643.07,4913.57 626.98,2086.71 2826.86,3270.05 4913.57,2643.07 2086.71,-626.98 3270.05,-2826.86 2643.07,-4913.57zm944.58 -283.81c783.73,2608.38 -695.45,5358.24 -3303.84,6141.96 -2608.39,783.73 -5358.24,-695.45 -6141.96,-3303.84 -783.73,-2608.39 695.45,-5358.24 3303.84,-6141.96 2608.38,-783.73 5358.24,695.45 6141.96,3303.84z"/>
    </g>
   </g>
   <path class="fil5" d="M1951.55 4085.66c-125.28,-6.44 -199.18,19.97 -249.67,134.57 307.01,42.59 347.35,-288.22 84.26,-357.5 -0.71,161.85 83.46,173.48 165.41,222.93zm-1590.01 -2005.93c-2.7,-90.52 -26.09,-142.13 -111.51,-171.67 -12.55,223.31 227.85,232.84 262.16,39.5 -116.5,8.99 -119.91,70.22 -150.66,132.16zm2061.19 1795.46l29.86 0c10.72,0 19.44,8.76 19.44,19.44l0 351.98c0,10.71 -8.72,19.44 -19.44,19.44l-29.86 0c-10.71,0 -19.41,-8.73 -19.41,-19.44l0 -351.98c0,-10.68 8.7,-19.44 19.41,-19.44zm-102.78 11.55l29.86 0c10.72,0 19.44,8.7 19.44,19.38l0 351.98c0,10.71 -8.72,19.47 -19.44,19.47l-29.86 0c-10.71,0 -19.44,-8.76 -19.44,-19.47l0 -351.98c0,-10.68 8.73,-19.38 19.44,-19.38zm-100.44 9.64l29.8 0c10.68,0 19.44,8.76 19.44,19.47l0 351.94c0,10.72 -8.76,19.41 -19.44,19.41l-29.8 0c-10.74,0 -19.44,-8.69 -19.44,-19.41l0 -351.94c0,-10.72 8.7,-19.47 19.44,-19.47zm-105.9 -9.64l29.86 0c10.71,0 19.44,8.7 19.44,19.38l0 351.98c0,10.71 -8.73,19.47 -19.44,19.47l-29.86 0c-10.72,0 -19.38,-8.76 -19.38,-19.47l0 -351.98c0,-10.68 8.67,-19.38 19.38,-19.38zm-99.72 -11.55l29.86 0c10.72,0 19.47,8.76 19.47,19.44l0 351.98c0,10.71 -8.76,19.44 -19.47,19.44l-29.86 0c-10.66,0 -19.38,-8.73 -19.38,-19.44l0 -351.98c0,-10.68 8.72,-19.44 19.38,-19.44zm1755.69 -2681.41c-29.24,-55.62 -32.71,-94.86 8.87,-141.9 83.76,130.8 -58.32,218.62 -145.1,113.38 73.49,-34.25 96.46,1.6 136.23,28.52zm-115.72 -156.15c-38.34,-50.6 -48.29,-89.01 -14.75,-142.7 105.13,116.26 -21.79,227.23 -125.58,136.91 67.49,-46.33 96.34,-14.42 140.33,5.79zm-328.73 -280.36c73.49,3.77 108.39,44.43 109.37,85.9 -45.2,14.48 -98.95,-40.72 -109.37,-85.9zm188.05 152.82c-36.77,-48.44 -46.3,-85.3 -14.1,-136.74 100.67,111.42 -20.92,217.79 -120.38,131.22 64.68,-44.43 92.28,-13.83 134.48,5.52zm365.48 440.07c-26,-59.98 -26.56,-100.91 20.18,-146.5 76.81,142.23 -77.43,222.28 -159.26,106.4 78.92,-29.86 99.96,9.11 139.08,40.1zm73.9 164.01c-20.24,-71.23 -14.84,-117.2 44.46,-161.37 65,170.98 -120,237.8 -194.55,95.57 93.05,-21.76 110.8,25.14 150.09,65.8zm80.82 181.64c-17.9,-81.59 -8.58,-133 61.23,-178.7 61.35,197.1 -151.61,259.61 -225.81,94.29 106.32,-18.1 123.14,35.91 164.58,84.41zm39.8 197.55c-4.54,-86.78 13.71,-137.95 93.05,-172.95 29.62,212.54 -199.42,240.65 -247.56,58.47 112.07,-0.62 120.2,57.7 154.51,114.48zm34.7 186.36c2.7,-90.52 26.09,-142.13 111.48,-171.67 12.53,223.31 -227.85,232.84 -262.16,39.5 116.49,8.99 119.91,70.22 150.69,132.16zm7.6 203.01c10.51,-92.54 38.85,-143.47 128.87,-166.47 -6.11,229.96 -253.29,219.27 -272.02,18.25 118.6,19.14 116.88,82.18 143.15,148.22zm-10.18 207.52c20.75,-96.73 55.95,-147.66 153.57,-162.65 -30.34,242.57 -290.6,205.59 -289.56,-8.96 123.44,32.56 115.13,99.07 135.99,171.61zm-46.39 198.83c36,-96.46 80.02,-143.47 182.8,-144.1 -68.14,245.04 -330.46,167.48 -296.74,-53.21 122.16,52.24 103.41,119.43 113.94,197.31zm-64.88 195.95c43.9,-93.17 91.71,-136.41 194.17,-128.43 -88.27,238.57 -343.19,139.38 -291.25,-77.73 117.35,62.24 93.1,127.59 97.08,206.16zm-80.46 186.71c56.18,-86.22 109.4,-122.55 209.81,-100.7 -119.96,224.26 -358.98,91.3 -277.92,-116.73 107.74,77.67 74.85,139.11 68.12,217.44zm-105.78 184.28c70.96,-84.2 132.19,-115.69 235.87,-79.36 -156.68,222.27 -392.87,49.8 -279.59,-160.3 104.12,96.52 61.14,157.42 43.72,239.66zm-129.97 179.68c83.13,-80.19 150.45,-106.49 254.71,-57.34 -187.61,214.97 -415.43,9.44 -274.45,-197.55 98.3,111.98 46.8,170.93 19.74,254.89zm-146.47 155.26c92.96,-68.56 163.18,-85.72 260.12,-23.36 -214.23,188.56 -413.09,-45.11 -246.23,-231.86 82.75,123.98 24.01,175.59 -13.89,255.22zm-171.99 143.89c97.97,-61.23 169.29,-73.01 261.12,-3.35 -228.06,171.49 -408.4,-76.69 -227.65,-250.05 72.95,129.88 10.42,176.92 -33.48,253.41zm-186.72 116.85c108.36,-40.13 180.54,-37.19 256.37,49.65 -258.12,121.72 -384.42,-157.96 -172.23,-291.04 45.11,141.99 -25.64,175.38 -84.14,241.39zm-214.56 78.42c116.53,-12.23 186.81,8.78 239.49,113.2 -284.28,54.73 -338.09,-251.83 -96.13,-329.27 8.64,150.87 -69.27,165.88 -143.35,216.07zm-212.3 100.85c123.68,-12.97 198.29,9.38 254.24,120.2 -301.73,58.11 -358.86,-267.33 -102.04,-349.57 9.2,160.21 -73.55,176.06 -152.2,229.37zm-227.94 54.67c125.28,-6.44 199.18,19.97 249.67,134.57 -307.01,42.59 -347.37,-288.22 -84.26,-357.5 0.74,161.85 -83.43,173.48 -165.41,222.93zm-1818.05 -2891.87c29.26,-55.62 32.77,-94.86 -8.84,-141.9 -83.76,130.8 58.32,218.62 145.14,113.38 -73.55,-34.25 -96.49,1.6 -136.29,28.52zm115.75 -156.15c38.35,-50.6 48.29,-89.01 14.72,-142.7 -105.06,116.26 21.79,227.23 125.61,136.91 -67.49,-46.33 -96.34,-14.42 -140.33,5.79zm328.77 -280.36c-73.52,3.77 -108.39,44.43 -109.4,85.9 45.2,14.48 98.95,-40.72 109.4,-85.9zm-188.11 152.82c36.77,-48.44 46.33,-85.3 14.16,-136.74 -100.76,111.42 20.9,217.79 120.35,131.22 -64.7,-44.43 -92.3,-13.83 -134.51,5.52zm-365.45 440.07c26.03,-59.98 26.6,-100.91 -20.15,-146.5 -76.81,142.23 77.41,222.28 159.26,106.4 -78.95,-29.86 -99.96,9.11 -139.11,40.1zm-73.9 164.01c20.24,-71.23 14.84,-117.2 -44.46,-161.37 -65,170.98 120,237.8 194.52,95.57 -93.02,-21.76 -110.79,25.14 -150.06,65.8zm-80.82 181.64c17.92,-81.59 8.55,-133 -61.23,-178.7 -61.35,197.1 151.57,259.61 225.71,94.29 -106.22,-18.1 -123.05,35.91 -164.48,84.41zm-39.8 197.55c4.54,-86.78 -13.69,-137.95 -93.05,-172.95 -29.65,212.54 199.42,240.65 247.53,58.47 -112.07,-0.62 -120.18,57.7 -154.48,114.48zm-42.33 389.37c-10.48,-92.54 -38.82,-143.47 -128.84,-166.47 6.15,229.96 253.2,219.27 271.99,18.25 -118.6,19.14 -116.85,82.18 -143.15,148.22zm10.18 207.52c-20.69,-96.73 -55.92,-147.66 -153.53,-162.65 30.33,242.57 290.6,205.59 289.56,-8.96 -123.44,32.56 -115.13,99.07 -136.02,171.61zm46.42 198.83c-36,-96.46 -79.99,-143.47 -182.8,-144.1 68.15,245.04 330.46,167.48 296.71,-53.21 -122.13,52.24 -103.41,119.43 -113.91,197.31zm64.88 195.95c-43.9,-93.17 -91.71,-136.41 -194.16,-128.43 88.27,238.57 343.19,139.38 291.25,-77.73 -117.35,62.24 -93.08,127.59 -97.09,206.16zm80.46 186.71c-56.18,-86.22 -109.43,-122.55 -209.81,-100.7 119.97,224.26 358.95,91.3 277.92,-116.73 -107.77,77.67 -74.85,139.11 -68.11,217.44zm105.78 184.28c-70.97,-84.2 -132.2,-115.69 -235.87,-79.36 156.68,222.27 392.85,49.8 279.59,-160.3 -104.12,96.52 -61.14,157.42 -43.72,239.66zm130 179.68c-83.17,-80.19 -150.48,-106.49 -254.77,-57.34 187.61,214.97 415.46,9.44 274.48,-197.55 -98.3,111.98 -46.84,170.93 -19.71,254.89zm146.41 155.26c-92.93,-68.56 -163.15,-85.72 -260.08,-23.36 214.23,188.56 413.09,-45.11 246.16,-231.86 -82.69,123.98 -23.95,175.59 13.92,255.22zm172.03 143.89c-97.94,-61.23 -169.3,-73.01 -261.13,-3.35 228.09,171.49 408.4,-76.69 227.68,-250.05 -72.98,129.88 -10.42,176.92 33.45,253.41zm186.72 116.85c-108.36,-40.13 -180.57,-37.19 -256.38,49.65 258.13,121.72 384.39,-157.96 172.23,-291.04 -45.11,141.99 25.65,175.38 84.15,241.39zm214.55 78.42c-116.52,-12.23 -186.81,8.78 -239.49,113.2 284.28,54.73 338.09,-251.83 96.13,-329.27 -8.64,150.87 69.27,165.88 143.35,216.07zm212.27 100.85c-123.67,-12.97 -198.23,9.38 -254.21,120.2 301.73,58.11 358.86,-267.33 102.07,-349.57 -9.23,160.21 73.52,176.06 152.14,229.37z"/>
   <path class="fil6" d="M2234.67 179.09l48.94 151.66 159.34 -0.32 -129.07 93.4 49.53 151.47 -128.74 -93.91 -128.73 93.91 49.54 -151.47 -129.08 -93.4 159.36 0.32 48.91 -151.66zm-886.07 307.49l-32.16 99.54 -104.64 -0.21 84.76 61.35 -32.49 99.48 84.54 -61.67 84.49 61.67 -32.5 -99.48 84.76 -61.35 -104.64 0.21 -32.11 -99.54zm1800.38 0l32.16 99.54 104.61 -0.21 -84.73 61.35 32.52 99.48 -84.57 -61.67 -84.52 61.67 32.49 -99.48 -84.73 -61.35 104.64 0.21 32.11 -99.54zm-1372.28 -200.17l-39.4 122.04 -128.29 -0.24 103.89 75.22 -39.84 121.93 103.64 -75.63 103.58 75.63 -39.86 -121.93 103.94 -75.22 -128.28 0.24 -39.39 -122.04zm944.19 0l39.42 122.04 128.27 -0.24 -103.95 75.22 39.9 121.93 -103.64 -75.63 -103.64 75.63 39.92 -121.93 -103.97 -75.22 128.31 0.24 39.39 -122.04z"/>
   <g>
    <path class="fil7" d="M2413.26 3399.64c-22.67,14.01 -46.12,28.74 -66.24,46.2 -5.5,4.77 -20.27,20.61 -26.44,21.92l0.13 -1.04c0.54,-0.41 1.12,-0.74 1.62,-1.2 4.92,-4.3 8.94,-10.84 13.67,-15.63 15.15,-15.39 31.14,-30.8 47.57,-44.85 70.02,-59.91 177.19,-116.56 265.94,-140.39 124.06,-38.17 249.91,-58.26 378.45,-73.65 56.88,-6.81 114.62,-14.17 171.94,-14.52 -127.51,26.94 -256.34,49.11 -383.06,79.37 -137.28,31.95 -282.55,69.1 -403.59,143.77zm-345.81 0c22.67,14.01 46.12,28.74 66.25,46.2 5.5,4.77 20.27,20.61 26.43,21.92l-0.13 -1.04c-0.54,-0.41 -1.12,-0.74 -1.62,-1.2 -4.92,-4.3 -8.94,-10.84 -13.67,-15.63 -15.15,-15.39 -31.14,-30.8 -47.57,-44.85 -70.02,-59.91 -177.19,-116.56 -265.94,-140.39 -124.06,-38.17 -249.91,-58.26 -378.45,-73.65 -56.88,-6.81 -114.61,-14.17 -171.94,-14.52 127.51,26.94 256.34,49.11 383.06,79.37 137.28,31.95 282.55,69.1 403.59,143.77z"/>
    <g>
     <g style="clip-path:url(#id2)">
      <path class="fil0" d="M2977.39 3443.36c16.69,274.76 -192.51,511.02 -467.27,527.71 -274.76,16.69 -511.02,-192.51 -527.71,-467.27 -16.69,-274.76 192.51,-511.02 467.27,-527.71 274.76,-16.69 511.02,192.51 527.71,467.27z"/>
      <path id="_1_481" class="fil1" d="M2811.56 3453.43c-11.12,-183.17 -168.64,-322.64 -351.81,-311.51 -183.17,11.13 -322.64,168.64 -311.51,351.81 11.13,183.17 168.64,322.64 351.81,311.51 183.17,-11.12 322.64,-168.64 311.51,-351.81zm497.49 -30.22c27.82,457.93 -320.86,851.7 -778.78,879.52 -457.93,27.82 -851.7,-320.86 -879.52,-778.78 -27.82,-457.93 320.86,-851.7 778.78,-879.52 457.93,-27.82 851.7,320.86 879.52,778.78z"/>
      <path id="_2_482" class="fil2" d="M3143.22 3433.29c-22.26,-366.34 -337.27,-645.28 -703.61,-623.03 -366.34,22.25 -645.28,337.27 -623.03,703.61 22.25,366.34 337.27,645.28 703.61,623.03 366.34,-22.26 645.28,-337.27 623.03,-703.61zm497.49 -30.22c38.95,641.1 -449.2,1192.38 -1090.29,1231.32 -641.1,38.95 -1192.38,-449.2 -1231.32,-1090.29 -38.95,-641.1 449.2,-1192.38 1090.29,-1231.32 641.1,-38.95 1192.38,449.2 1231.32,1090.29z"/>
      <path id="_3_483" class="fil3" d="M3474.88 3413.14c-33.38,-549.51 -505.91,-967.92 -1055.42,-934.54 -549.51,33.38 -967.92,505.91 -934.54,1055.42 33.38,549.51 505.91,967.92 1055.42,934.54 549.51,-33.38 967.92,-505.91 934.54,-1055.42zm497.49 -30.22c50.07,824.27 -577.54,1533.06 -1401.81,1583.13 -824.27,50.07 -1533.06,-577.54 -1583.13,-1401.81 -50.07,-824.27 577.54,-1533.06 1401.81,-1583.13 824.27,-50.07 1533.06,577.54 1583.13,1401.81z"/>
      <path id="_4_484" class="fil4" d="M3806.54 3392.99c-44.51,-732.68 -674.54,-1290.56 -1407.23,-1246.05 -732.68,44.51 -1290.56,674.54 -1246.05,1407.23 44.51,732.68 674.54,1290.56 1407.23,1246.05 732.68,-44.51 1290.56,-674.54 1246.05,-1407.23zm331.66 -20.15c55.63,915.85 -641.71,1703.4 -1557.57,1759.03 -915.85,55.63 -1703.4,-641.71 -1759.03,-1557.57 -55.64,-915.85 641.71,-1703.4 1557.57,-1759.03 915.85,-55.64 1703.4,641.71 1759.03,1557.57z"/>
     </g>
    </g>
    <g>
     <g style="clip-path:url(#id3)">
      <path class="fil0" d="M3102.65 3609.85c22.96,321.45 -219.01,600.66 -540.47,623.62 -321.45,22.96 -600.66,-219.01 -623.62,-540.47 -22.96,-321.45 219.01,-600.66 540.46,-623.62 321.45,-22.96 600.66,219.01 623.62,540.46z"/>
      <path id="_1_485" class="fil1" d="M2908.64 3623.71c-15.31,-214.3 -201.44,-375.62 -415.74,-360.31 -214.3,15.31 -375.62,201.44 -360.31,415.74 15.31,214.3 201.44,375.62 415.74,360.31 214.3,-15.31 375.62,-201.44 360.31,-415.74zm582.04 -41.58c38.27,535.76 -365.02,1001.09 -900.78,1039.36 -535.75,38.27 -1001.09,-365.02 -1039.36,-900.78 -38.27,-535.75 365.02,-1001.09 900.78,-1039.36 535.76,-38.27 1001.09,365.02 1039.36,900.78z"/>
      <path id="_2_486" class="fil2" d="M3296.67 3595.99c-30.62,-428.6 -402.89,-751.24 -831.49,-720.62 -428.6,30.62 -751.24,402.89 -720.62,831.49 30.62,428.61 402.89,751.24 831.49,720.62 428.61,-30.62 751.24,-402.89 720.62,-831.49zm582.04 -41.57c53.58,750.06 -511.03,1401.53 -1261.09,1455.11 -750.06,53.58 -1401.53,-511.03 -1455.11,-1261.09 -53.58,-750.06 511.03,-1401.53 1261.09,-1455.11 750.06,-53.58 1401.53,511.03 1455.11,1261.09z"/>
      <path id="_3_487" class="fil3" d="M3684.69 3568.27c-45.92,-642.91 -604.33,-1126.86 -1247.24,-1080.93 -642.91,45.92 -1126.86,604.33 -1080.93,1247.24 45.92,642.91 604.33,1126.86 1247.24,1080.93 642.91,-45.92 1126.86,-604.33 1080.93,-1247.24zm582.05 -41.57c68.88,964.36 -657.04,1801.97 -1621.4,1870.86 -964.36,68.88 -1801.97,-657.04 -1870.86,-1621.4 -68.89,-964.36 657.04,-1801.97 1621.4,-1870.86 964.36,-68.89 1801.97,657.04 1870.86,1621.4z"/>
      <path id="_4_488" class="fil4" d="M4072.72 3540.56c-61.23,-857.21 -805.77,-1502.48 -1662.98,-1441.25 -857.21,61.23 -1502.48,805.77 -1441.25,1662.98 61.23,857.21 805.77,1502.48 1662.98,1441.24 857.21,-61.23 1502.48,-805.77 1441.24,-1662.98zm388.03 -27.72c76.54,1071.51 -730.05,2002.19 -1801.56,2078.73 -1071.51,76.54 -2002.19,-730.05 -2078.73,-1801.56 -76.54,-1071.51 730.05,-2002.19 1801.56,-2078.73 1071.51,-76.54 2002.19,730.05 2078.73,1801.56z"/>
     </g>
    </g>
   </g>
   <g>
    <g style="clip-path:url(#id4)">
     <path class="fil0" d="M3421.69 2651.63c229.51,534.37 -17.62,1153.61 -551.99,1383.13 -534.37,229.51 -1153.61,-17.62 -1383.13,-551.98 -229.51,-534.37 17.62,-1153.62 551.99,-1383.13 534.37,-229.51 1153.61,17.62 1383.13,551.99z"/>
     <path id="_1_489" class="fil1" d="M3099.17 2790.15c-153.01,-356.25 -565.84,-521 -922.08,-367.99 -356.25,153.01 -521,565.84 -367.99,922.08 153.01,356.25 565.84,521 922.08,367.99 356.25,-153.01 521,-565.84 367.99,-922.08zm967.56 -415.57c382.52,890.61 -29.37,1922.69 -919.98,2305.21 -890.61,382.52 -1922.69,-29.37 -2305.21,-919.98 -382.52,-890.61 29.37,-1922.69 919.98,-2305.21 890.61,-382.52 1922.69,29.36 2305.21,919.97z"/>
     <path id="_2_490" class="fil2" d="M3744.21 2513.11c-306.02,-712.49 -1131.68,-1042 -1844.17,-735.98 -712.49,306.02 -1042,1131.68 -735.98,1844.17 306.02,712.49 1131.68,1042 1844.17,735.98 712.49,-306.02 1042,-1131.68 735.98,-1844.17zm967.55 -415.57c535.53,1246.85 -41.11,2691.76 -1287.96,3227.3 -1246.86,535.53 -2691.77,-41.11 -3227.3,-1287.97 -535.53,-1246.86 41.11,-2691.76 1287.97,-3227.3 1246.85,-535.53 2691.76,41.11 3227.29,1287.97z"/>
     <path id="_3_491" class="fil3" d="M4389.25 2236.06c-459.03,-1068.73 -1697.52,-1563 -2766.26,-1103.97 -1068.73,459.03 -1563,1697.52 -1103.97,2766.25 459.03,1068.74 1697.52,1563 2766.25,1103.97 1068.74,-459.03 1563,-1697.52 1103.97,-2766.26zm967.55 -415.57c688.54,1603.1 -52.86,3460.84 -1655.96,4149.38 -1603.1,688.54 -3460.84,-52.86 -4149.38,-1655.96 -688.54,-1603.1 52.86,-3460.84 1655.96,-4149.38 1603.1,-688.54 3460.84,52.86 4149.38,1655.96z"/>
     <path id="_4_492" class="fil4" d="M5034.28 1959.01c-612.03,-1424.98 -2263.36,-2084 -3688.34,-1471.96 -1424.98,612.03 -2084,2263.36 -1471.96,3688.34 612.03,1424.98 2263.36,2084 3688.34,1471.96 1424.98,-612.03 2084,-2263.36 1471.96,-3688.34zm645.04 -277.05c765.05,1781.22 -58.73,3845.38 -1839.95,4610.42 -1781.22,765.05 -3845.38,-58.73 -4610.43,-1839.95 -765.04,-1781.22 58.73,-3845.38 1839.95,-4610.43 1781.22,-765.04 3845.38,58.73 4610.42,1839.95z"/>
    </g>
   </g>
   <path class="fil8" d="M3003.75 2273.58c47.48,0 91.73,9.59 132.74,28.78 41.01,19.19 76.62,45.49 106.83,78.92 30.22,33.42 53.96,72.73 71.22,117.91 17.26,45.18 25.9,94.08 25.9,146.69 0,50.13 -8.77,97.18 -26.3,141.12 -17.54,43.95 -41.41,82.17 -71.63,114.66 -30.21,32.5 -65.83,58.18 -106.83,77.06 -41.01,18.88 -84.98,28.32 -131.93,28.32 -46.94,0 -90.92,-9.44 -131.92,-28.32 -41.01,-18.88 -76.62,-44.57 -106.83,-77.06 -30.22,-32.49 -54.09,-70.71 -71.63,-114.66 -17.54,-43.95 -26.31,-90.99 -26.31,-141.12 0,-52.61 8.63,-101.51 25.9,-146.69 17.26,-45.19 41.01,-84.49 71.22,-117.91 30.22,-33.43 65.83,-59.73 106.84,-78.92 41.01,-19.19 85.25,-28.78 132.73,-28.78zm0 682.41c35.61,0 67.58,-7.12 95.91,-21.35 28.33,-14.24 52.61,-34.66 72.84,-61.28 20.24,-26.62 35.75,-58.96 46.54,-97.02 10.79,-38.07 16.19,-80.62 16.19,-127.66 0,-49.52 -5.4,-94.24 -16.19,-134.16 -10.79,-39.92 -26.17,-73.97 -46.13,-102.13 -19.96,-28.16 -44.24,-49.83 -72.84,-64.99 -28.6,-15.16 -60.7,-22.75 -96.31,-22.75 -35.61,0 -67.71,7.58 -96.31,22.75 -28.6,15.16 -52.88,36.83 -72.84,64.99 -19.96,28.16 -35.34,62.21 -46.13,102.13 -10.79,39.93 -16.19,84.64 -16.19,134.16 0,47.04 5.4,89.59 16.19,127.66 10.79,38.07 26.17,70.41 46.13,97.02 19.97,26.62 44.25,47.04 72.84,61.28 28.6,14.24 60.7,21.35 96.31,21.35z"/>
   <path class="fil9" d="M1385.85 2595.76c33.43,0 61.43,-2.01 84.03,-6.04 22.59,-4.02 40.54,-10.37 53.85,-19.03 13.31,-8.67 22.9,-19.81 28.78,-33.43 5.88,-13.62 8.82,-29.71 8.82,-48.28l32.49 0 0 253.47 -32.49 0c0,-18.57 -2.63,-34.66 -7.89,-48.28 -5.26,-13.62 -14.55,-24.91 -27.85,-33.89 -13.31,-8.98 -31.26,-15.79 -53.85,-20.43 -22.59,-4.64 -51.22,-6.96 -85.88,-6.96l0 209.83c0,20.43 2.48,37.29 7.43,50.6 4.95,13.31 13.46,24.14 25.53,32.49 12.07,8.35 28.01,14.24 47.82,17.64 19.81,3.4 44.26,5.11 73.35,5.11 32.8,0 60.66,-2.32 83.56,-6.96 22.9,-4.64 42.09,-12.54 57.56,-23.68 15.47,-11.14 27.85,-25.84 37.14,-44.1 9.29,-18.26 17.02,-41.01 23.21,-68.24l35.28 0 -13.93 182.91 -576.57 0 0 -35.28c21.66,-0.62 39.15,-2.48 52.46,-5.57 13.31,-3.09 23.68,-8.35 31.1,-15.78 7.43,-7.43 12.38,-17.95 14.85,-31.57 2.48,-13.62 3.71,-31.26 3.71,-52.92l0 -432.66c0,-21.66 -1.08,-39.15 -3.25,-52.46 -2.17,-13.31 -6.5,-23.83 -13,-31.57 -6.5,-7.74 -15.94,-13 -28.32,-15.79 -12.38,-2.79 -28.47,-4.79 -48.28,-6.03l0 -35.28 536.64 0 8.35 163.41 -32.49 0c-3.71,-24.76 -9.75,-45.03 -18.1,-60.81 -8.36,-15.79 -19.81,-28.32 -34.35,-37.6 -14.55,-9.29 -32.96,-15.78 -55.24,-19.5 -22.28,-3.71 -49.21,-5.57 -80.77,-5.57l-117.91 0c-10.52,0 -15.79,5.26 -15.79,15.78l0 266.47z"/>
  </g>
 </g>
</svg>
