<?xml version="1.0" encoding="UTF-8"?>
<!DOCTYPE svg PUBLIC "-//W3C//DTD SVG 1.1//EN" "http://www.w3.org/Graphics/SVG/1.1/DTD/svg11.dtd">
<!-- Creator: CorelDRAW -->
<svg xmlns="http://www.w3.org/2000/svg" xml:space="preserve" width="20mm" height="19.9997mm" version="1.1" style="shape-rendering:geometricPrecision; text-rendering:geometricPrecision; image-rendering:optimizeQuality; fill-rule:evenodd; clip-rule:evenodd"
viewBox="0 0 653.22 653.22"
 xmlns:xlink="http://www.w3.org/1999/xlink"
 xmlns:xodm="http://www.corel.com/coreldraw/odm/2003">
 <defs>
  <style type="text/css">
   <![CDATA[
    .fil0 {fill:#FEFEFE}
    .fil1 {fill:#FEFEFE;fill-rule:nonzero}
   ]]>
  </style>
 </defs>
 <g id="Katman_x0020_1">
  <metadata id="CorelCorpID_0Corel-Layer"/>
  <g id="_1981324761792">
   <path class="fil0" d="M326.61 653.22c-180.39,0 -326.61,-146.23 -326.61,-326.6 0,-180.38 146.23,-326.61 326.61,-326.61 180.38,0 326.61,146.23 326.61,326.61 0,180.38 -146.23,326.6 -326.61,326.6zm0 -637.28c-171.59,0 -310.68,139.1 -310.68,310.68 0,171.58 139.1,310.68 310.68,310.68 171.59,0 310.68,-139.1 310.68,-310.68 0,-171.59 -139.09,-310.68 -310.68,-310.68z"/>
   <path class="fil0" d="M326.61 557.56c-127.55,0 -230.95,-103.4 -230.95,-230.95 0,-127.56 103.4,-230.95 230.95,-230.95 127.55,0 230.95,103.39 230.95,230.95 0,127.54 -103.4,230.95 -230.95,230.95zm0 -450.63c-121.33,0 -219.69,98.36 -219.69,219.69 0,121.33 98.35,219.68 219.69,219.68 121.32,0 219.68,-98.35 219.68,-219.68 0,-121.33 -98.35,-219.69 -219.68,-219.69z"/>
   <path class="fil1" d="M284.5 595.62c-18.26,-0.94 -29.04,2.91 -36.4,19.62 44.76,6.21 50.64,-42.02 12.28,-52.12 -0.1,23.59 12.17,25.29 24.11,32.5zm-231.8 -292.43c-0.39,-13.2 -3.8,-20.72 -16.26,-25.03 -1.83,32.55 33.22,33.94 38.22,5.76 -16.98,1.31 -17.48,10.24 -21.96,19.27zm300.49 261.75l4.35 0c1.56,0 2.83,1.28 2.83,2.83l0 51.31c0,1.56 -1.27,2.83 -2.83,2.83l-4.35 0c-1.56,0 -2.83,-1.27 -2.83,-2.83l0 -51.31c0,-1.56 1.27,-2.83 2.83,-2.83zm-14.98 1.68l4.35 0c1.56,0 2.83,1.27 2.83,2.83l0 51.31c0,1.56 -1.27,2.84 -2.83,2.84l-4.35 0c-1.56,0 -2.83,-1.28 -2.83,-2.84l0 -51.31c0,-1.56 1.27,-2.83 2.83,-2.83zm-14.64 1.41l4.34 0c1.56,0 2.83,1.28 2.83,2.84l0 51.31c0,1.56 -1.28,2.83 -2.83,2.83l-4.34 0c-1.57,0 -2.83,-1.27 -2.83,-2.83l0 -51.31c0,-1.56 1.27,-2.84 2.83,-2.84zm-15.44 -1.41l4.35 0c1.56,0 2.83,1.27 2.83,2.83l0 51.31c0,1.56 -1.27,2.84 -2.83,2.84l-4.35 0c-1.56,0 -2.83,-1.28 -2.83,-2.84l0 -51.31c0,-1.56 1.26,-2.83 2.83,-2.83zm-14.54 -1.68l4.35 0c1.56,0 2.84,1.28 2.84,2.83l0 51.31c0,1.56 -1.28,2.83 -2.84,2.83l-4.35 0c-1.55,0 -2.83,-1.27 -2.83,-2.83l0 -51.31c0,-1.56 1.27,-2.83 2.83,-2.83zm255.95 -390.9c-4.26,-8.11 -4.77,-13.83 1.29,-20.69 12.21,19.07 -8.5,31.87 -21.15,16.53 10.71,-4.99 14.06,0.23 19.86,4.16zm-16.87 -22.76c-5.59,-7.38 -7.04,-12.98 -2.15,-20.8 15.33,16.95 -3.18,33.13 -18.31,19.96 9.84,-6.75 14.04,-2.1 20.46,0.84zm-47.92 -40.87c10.71,0.55 15.8,6.48 15.94,12.52 -6.59,2.11 -14.43,-5.94 -15.94,-12.52zm27.41 22.28c-5.36,-7.06 -6.75,-12.44 -2.06,-19.93 14.68,16.24 -3.05,31.75 -17.55,19.13 9.43,-6.48 13.45,-2.02 19.61,0.8zm53.28 64.15c-3.79,-8.74 -3.87,-14.71 2.94,-21.36 11.2,20.73 -11.29,32.4 -23.22,15.51 11.51,-4.35 14.57,1.33 20.28,5.85zm10.77 23.91c-2.95,-10.38 -2.16,-17.09 6.48,-23.52 9.48,24.93 -17.49,34.67 -28.36,13.93 13.56,-3.17 16.15,3.66 21.88,9.59zm11.78 26.48c-2.61,-11.89 -1.25,-19.39 8.93,-26.05 8.94,28.73 -22.1,37.85 -32.92,13.75 15.5,-2.64 17.95,5.24 23.99,12.31zm5.8 28.8c-0.66,-12.65 2,-20.11 13.56,-25.21 4.32,30.98 -29.07,35.08 -36.09,8.52 16.34,-0.09 17.52,8.41 22.53,16.69zm5.06 27.17c0.39,-13.2 3.8,-20.72 16.25,-25.03 1.83,32.55 -33.22,33.94 -38.22,5.76 16.98,1.31 17.48,10.24 21.97,19.27zm1.11 29.6c1.53,-13.49 5.66,-20.92 18.79,-24.27 -0.89,33.52 -36.93,31.97 -39.66,2.66 17.29,2.79 17.04,11.98 20.87,21.61zm-1.48 30.25c3.02,-14.1 8.16,-21.53 22.39,-23.71 -4.42,35.36 -42.36,29.97 -42.21,-1.31 18,4.75 16.78,14.44 19.83,25.02zm-6.76 28.99c5.25,-14.06 11.67,-20.92 26.65,-21.01 -9.93,35.72 -48.17,24.42 -43.26,-7.76 17.81,7.61 15.07,17.41 16.61,28.76zm-9.46 28.57c6.4,-13.58 13.37,-19.89 28.31,-18.72 -12.87,34.78 -50.03,20.32 -42.46,-11.33 17.11,9.07 13.57,18.6 14.15,30.05zm-11.73 27.22c8.19,-12.57 15.95,-17.87 30.59,-14.68 -17.49,32.69 -52.33,13.31 -40.52,-17.02 15.71,11.32 10.91,20.28 9.93,31.7zm-15.42 26.87c10.35,-12.28 19.27,-16.87 34.39,-11.57 -22.84,32.4 -57.27,7.26 -40.76,-23.37 15.18,14.07 8.91,22.95 6.37,34.94zm-18.95 26.19c12.12,-11.69 21.93,-15.52 37.13,-8.36 -27.35,31.34 -60.56,1.38 -40.01,-28.8 14.33,16.33 6.82,24.92 2.88,37.16zm-21.35 22.63c13.55,-10 23.79,-12.5 37.92,-3.41 -31.23,27.49 -60.22,-6.58 -35.9,-33.8 12.06,18.07 3.5,25.6 -2.03,37.21zm-25.07 20.98c14.28,-8.93 24.68,-10.64 38.07,-0.49 -33.25,25 -59.54,-11.18 -33.19,-36.45 10.64,18.93 1.52,25.79 -4.88,36.94zm-27.22 17.03c15.8,-5.85 26.32,-5.42 37.37,7.24 -37.63,17.74 -56.04,-23.03 -25.11,-42.43 6.58,20.7 -3.74,25.57 -12.27,35.19zm-31.28 11.43c16.99,-1.78 27.23,1.28 34.91,16.5 -41.44,7.98 -49.29,-36.71 -14.01,-48 1.26,21.99 -10.1,24.18 -20.9,31.5zm-30.95 14.7c18.03,-1.89 28.91,1.37 37.06,17.52 -43.99,8.47 -52.32,-38.97 -14.88,-50.96 1.34,23.36 -10.72,25.67 -22.19,33.44zm-33.23 7.97c18.26,-0.94 29.04,2.91 36.4,19.62 -44.76,6.21 -50.64,-42.02 -12.28,-52.12 0.11,23.59 -12.16,25.29 -24.11,32.5zm-265.04 -421.59c4.27,-8.11 4.78,-13.83 -1.29,-20.69 -12.21,19.07 8.5,31.87 21.16,16.53 -10.72,-4.99 -14.07,0.23 -19.87,4.16zm16.87 -22.76c5.59,-7.38 7.04,-12.98 2.15,-20.8 -15.32,16.95 3.18,33.13 18.31,19.96 -9.84,-6.75 -14.05,-2.1 -20.46,0.84zm47.93 -40.87c-10.72,0.55 -15.8,6.48 -15.95,12.52 6.59,2.11 14.43,-5.94 15.95,-12.52zm-27.42 22.28c5.36,-7.06 6.75,-12.44 2.06,-19.93 -14.69,16.24 3.05,31.75 17.55,19.13 -9.43,-6.48 -13.46,-2.02 -19.61,0.8zm-53.28 64.15c3.79,-8.74 3.88,-14.71 -2.94,-21.36 -11.2,20.73 11.28,32.4 23.22,15.51 -11.51,-4.35 -14.57,1.33 -20.28,5.85zm-10.77 23.91c2.95,-10.38 2.16,-17.09 -6.48,-23.52 -9.48,24.93 17.49,34.67 28.36,13.93 -13.56,-3.17 -16.15,3.66 -21.88,9.59zm-11.78 26.48c2.61,-11.89 1.25,-19.39 -8.93,-26.05 -8.94,28.73 22.1,37.85 32.91,13.75 -15.49,-2.64 -17.94,5.24 -23.98,12.31zm-5.8 28.8c0.66,-12.65 -2,-20.11 -13.56,-25.21 -4.32,30.98 29.07,35.08 36.09,8.52 -16.34,-0.09 -17.52,8.41 -22.52,16.69zm-6.17 56.76c-1.53,-13.49 -5.66,-20.92 -18.78,-24.27 0.9,33.52 36.91,31.97 39.65,2.66 -17.29,2.79 -17.04,11.98 -20.87,21.61zm1.48 30.25c-3.02,-14.1 -8.15,-21.53 -22.38,-23.71 4.42,35.36 42.36,29.97 42.21,-1.31 -18,4.75 -16.78,14.44 -19.83,25.02zm6.77 28.99c-5.25,-14.06 -11.66,-20.92 -26.65,-21.01 9.93,35.72 48.18,24.42 43.26,-7.76 -17.8,7.61 -15.07,17.41 -16.61,28.76zm9.46 28.57c-6.4,-13.58 -13.37,-19.89 -28.31,-18.72 12.87,34.78 50.03,20.32 42.46,-11.33 -17.11,9.07 -13.57,18.6 -14.15,30.05zm11.73 27.22c-8.19,-12.57 -15.95,-17.87 -30.59,-14.68 17.49,32.69 52.33,13.31 40.52,-17.02 -15.71,11.32 -10.91,20.28 -9.93,31.7zm15.42 26.87c-10.35,-12.28 -19.27,-16.87 -34.39,-11.57 22.84,32.4 57.27,7.26 40.76,-23.37 -15.18,14.07 -8.91,22.95 -6.37,34.94zm18.95 26.19c-12.12,-11.69 -21.94,-15.52 -37.14,-8.36 27.35,31.34 60.57,1.38 40.01,-28.8 -14.33,16.33 -6.83,24.92 -2.87,37.16zm21.34 22.63c-13.55,-10 -23.78,-12.5 -37.92,-3.41 31.23,27.49 60.22,-6.58 35.89,-33.8 -12.05,18.07 -3.49,25.6 2.03,37.21zm25.08 20.98c-14.28,-8.93 -24.68,-10.64 -38.07,-0.49 33.25,25 59.54,-11.18 33.19,-36.45 -10.64,18.93 -1.52,25.79 4.88,36.94zm27.22 17.03c-15.8,-5.85 -26.32,-5.42 -37.38,7.24 37.63,17.74 56.04,-23.03 25.11,-42.43 -6.58,20.7 3.74,25.57 12.27,35.19zm31.28 11.43c-16.99,-1.78 -27.23,1.28 -34.91,16.5 41.44,7.98 49.29,-36.71 14.01,-48 -1.26,21.99 10.1,24.18 20.9,31.5zm30.95 14.7c-18.03,-1.89 -28.9,1.37 -37.06,17.52 43.99,8.47 52.32,-38.97 14.88,-50.96 -1.35,23.36 10.72,25.67 22.18,33.44z"/>
   <path class="fil1" d="M325.78 26.11l7.13 22.11 23.23 -0.05 -18.82 13.62 7.22 22.08 -18.77 -13.69 -18.77 13.69 7.22 -22.08 -18.82 -13.62 23.23 0.05 7.13 -22.11zm-129.17 44.83l-4.69 14.51 -15.25 -0.03 12.36 8.94 -4.74 14.5 12.32 -8.99 12.32 8.99 -4.74 -14.5 12.36 -8.94 -15.26 0.03 -4.68 -14.51zm262.46 0l4.69 14.51 15.25 -0.03 -12.35 8.94 4.74 14.5 -12.33 -8.99 -12.32 8.99 4.74 -14.5 -12.35 -8.94 15.26 0.03 4.68 -14.51zm-200.06 -29.18l-5.74 17.79 -18.7 -0.03 15.15 10.97 -5.81 17.77 15.11 -11.03 15.1 11.03 -5.81 -17.77 15.15 -10.97 -18.7 0.03 -5.74 -17.79zm137.65 0l5.75 17.79 18.7 -0.03 -15.15 10.97 5.82 17.77 -15.11 -11.03 -15.11 11.03 5.82 -17.77 -15.16 -10.97 18.7 0.03 5.74 -17.79z"/>
   <g>
    <path class="fil1" d="M351.81 495.61c-3.31,2.04 -6.72,4.19 -9.66,6.74 -0.8,0.7 -2.95,3 -3.85,3.2l0.02 -0.15c0.08,-0.06 0.16,-0.11 0.24,-0.17 0.72,-0.63 1.3,-1.58 1.99,-2.28 2.21,-2.24 4.54,-4.49 6.93,-6.54 10.21,-8.73 25.83,-16.99 38.77,-20.47 18.09,-5.56 36.43,-8.49 55.17,-10.74 8.29,-0.99 16.71,-2.07 25.07,-2.12 -18.59,3.93 -37.37,7.16 -55.84,11.57 -20.01,4.66 -41.19,10.07 -58.84,20.96zm-50.41 0c3.31,2.04 6.72,4.19 9.66,6.74 0.8,0.7 2.95,3 3.85,3.2l-0.02 -0.15c-0.08,-0.06 -0.16,-0.11 -0.24,-0.17 -0.72,-0.63 -1.3,-1.58 -1.99,-2.28 -2.21,-2.24 -4.54,-4.49 -6.94,-6.54 -10.21,-8.73 -25.83,-16.99 -38.77,-20.47 -18.09,-5.56 -36.43,-8.49 -55.17,-10.74 -8.29,-0.99 -16.71,-2.07 -25.07,-2.12 18.59,3.93 37.37,7.16 55.84,11.57 20.01,4.66 41.19,10.07 58.84,20.96z"/>
    <path class="fil0" d="M449.12 457.09c-5.91,0.84 -11.8,1.8 -17.67,2.89 -17.21,3.16 -33.86,7.21 -50.34,13.13 -5.85,2.47 -11.7,4.91 -17.25,8.01 -11.92,6.65 -23.49,16.54 -31.17,27.86 -0.21,0.3 -0.31,0.46 -0.6,0.67 0.63,-1.99 2.02,-4.02 3.08,-5.84 7.88,-13.58 20.94,-24.38 34.78,-31.52 6.89,-3.56 14.53,-6.83 22.07,-8.65 16.91,-4.69 34.2,-7 51.7,-7.86 5.74,-0.28 11.49,-0.17 17.21,-0.43 -1.88,0.82 -9.26,1.38 -11.8,1.75zm-245.02 0c5.91,0.84 11.8,1.8 17.67,2.89 17.21,3.16 33.86,7.21 50.34,13.13 5.85,2.47 11.7,4.91 17.25,8.01 11.92,6.65 23.49,16.54 31.17,27.86 0.21,0.3 0.31,0.46 0.6,0.67 -0.63,-1.99 -2.02,-4.02 -3.08,-5.84 -7.88,-13.58 -20.94,-24.38 -34.78,-31.52 -6.88,-3.56 -14.53,-6.83 -22.07,-8.65 -16.91,-4.69 -34.2,-7 -51.7,-7.86 -5.74,-0.28 -11.49,-0.17 -17.21,-0.43 1.88,0.82 9.26,1.38 11.8,1.75z"/>
    <path class="fil0" d="M339.04 512.88c1.78,-2.88 3.89,-5.23 6.37,-7.51 10.22,-9.4 27.28,-16.64 40.57,-20.23 27.84,-8.15 56.92,-11.53 84.84,-19.38 3.85,-1.08 7.66,-2.41 11.45,-3.67l1.48 4.28 -88.2 30.63c-17.78,6.17 -35.53,12.58 -53.4,18.48 -1.61,7.65 -2.96,13.83 -9.9,18.36 -1.79,1.17 -3.72,2.06 -5.64,2.97 -1.93,-0.91 -3.86,-1.8 -5.64,-2.97 -6.94,-4.52 -8.29,-10.71 -9.9,-18.36 -17.87,-5.9 -35.61,-12.31 -53.4,-18.48l-88.2 -30.63 1.48 -4.28c3.79,1.26 7.6,2.59 11.45,3.67 27.93,7.85 57,11.23 84.84,19.38 13.29,3.59 30.35,10.83 40.57,20.23 2.48,2.28 4.59,4.63 6.37,7.51 3.78,3.4 6.72,7.67 12.43,7.62 5.71,0.05 8.65,-4.22 12.43,-7.62z"/>
   </g>
   <path class="fil0" d="M316.82 306.09c0.06,-0.06 0.11,-0.12 0.18,-0.17 0,0.15 0,0.29 -0.01,0.44 -0.06,-0.09 -0.11,-0.18 -0.17,-0.27zm123.75 -99.06c0.78,0.87 1.26,2.02 1.26,3.28 0,1.85 -1.03,3.46 -2.54,4.3l31.51 90.81 4.07 0c-11.83,23.92 -70.92,16.59 -74.61,0l4.15 0 29.93 -90.93c-1.4,-0.86 -2.33,-2.41 -2.33,-4.17 0,-1.31 0.51,-2.5 1.35,-3.38 -27.49,-10.47 -59.37,-30.42 -93.07,-18.12 3.53,2.75 4.4,11.42 -0.21,15.12 1.37,3.31 -0.26,9.72 -3.89,9.38 -0.81,7.18 -0.88,57.75 -0.32,81.14 1.2,1.78 1.92,3.92 1.92,6.24 0,1.96 -0.5,3.8 -1.4,5.4 3.19,2.74 5.2,6.8 5.2,11.33 0,8.24 -6.68,14.94 -14.92,14.94 -0.02,0 -0.05,0 -0.07,0 -0.02,0 -0.05,0 -0.07,0 -8.24,0 -14.92,-6.69 -14.92,-14.94 0,-4.53 2.01,-8.59 5.2,-11.33 -0.9,-1.59 -1.4,-3.43 -1.4,-5.4 0,-2.31 0.71,-4.46 1.92,-6.24 0.56,-23.39 0.49,-73.96 -0.32,-81.14 -3.64,0.33 -5.26,-6.07 -3.89,-9.38 -4.61,-3.7 -3.74,-12.37 -0.21,-15.12 -34.05,-12.43 -66.25,8.08 -93.93,18.45 0.66,0.84 1.06,1.9 1.06,3.05 0,1.9 -1.08,3.55 -2.66,4.36l31.49 90.74 4.07 0c-11.83,23.92 -70.92,16.59 -74.61,0l4.15 0 29.96 -91.01c-1.33,-0.87 -2.21,-2.39 -2.21,-4.1 0,-1.35 0.54,-2.57 1.42,-3.46 -10.8,-4.6 -0.96,-21.14 2.66,-10.77 -5.05,-5.61 -6.87,7.17 -0.79,5.99 0.44,-2.3 2.13,-2.94 2.13,-2.94 1.53,0.82 1.92,2.94 1.92,2.94 27.71,-8.75 53.28,-36.67 98.11,-25.78 10.39,-7.33 7.85,-15.99 6.28,-17.01 -16.35,-11.5 -0.33,-16.45 4.23,-33.93 0.06,-0.21 0.23,-0.32 0.41,-0.32 0.18,0.01 0.34,0.11 0.4,0.32 4.56,17.48 20.58,22.43 4.23,33.93 -1.57,1.02 -4.11,9.68 6.28,17.01 44.84,-10.89 70.4,17.03 98.11,25.78 0,0 0.38,-2.11 1.92,-2.94 0,0 1.69,0.64 2.13,2.94 6.08,1.17 4.26,-11.6 -0.79,-5.99 3.64,-10.4 13.52,6.27 2.57,10.81l-0.89 0.14zm-226.84 98.38l-12.05 0 -16.79 0 28.84 -87.82c0.22,-0.4 0.64,-0.65 1.09,-0.68 0.46,-0.02 0.89,0.2 1.15,0.58l30.51 87.92 -17.77 0 -12.73 0 -2.24 0zm221.92 0l-12.05 0 -16.79 0 28.84 -87.82c0.22,-0.4 0.64,-0.65 1.09,-0.68 0.46,-0.02 0.89,0.2 1.15,0.58l30.51 87.92 -17.77 0 -12.73 0 -2.24 0zm-108.98 30.06c4.16,0 7.97,-1.72 10.69,-4.5 0.66,10.63 1.48,19.47 2.47,24.4l0.12 0 0 14.01 -2.55 0c-1.57,10.05 -3.3,19.21 -3.15,28.58 0,27.07 12.79,35.59 12.79,35.59 0,0 -12.94,12.73 -18.42,30.39 0.3,0.41 0.49,0.93 0.49,1.47 0,1.05 -0.63,1.94 -1.51,2.3l0 -35.46c1.34,-0.44 2.29,-1.67 2.29,-3.13 0,-1.48 -0.96,-2.73 -2.29,-3.13l0 -14.28 -1 -1.35 -1 1.35 0 14.28c-1.34,0.41 -2.3,1.66 -2.3,3.13 0,1.46 0.96,2.69 2.3,3.13l0 35.46c-0.88,-0.36 -1.51,-1.25 -1.51,-2.3 0,-0.54 0.18,-1.06 0.49,-1.47 -5.47,-17.66 -18.42,-30.39 -18.42,-30.39 0,0 12.79,-8.52 12.79,-35.59 0.15,-9.37 -1.58,-18.53 -3.15,-28.58l-2.56 0 0 -14.01 0.12 0c0.99,-4.93 1.81,-13.76 2.47,-24.4 2.72,2.78 6.52,4.5 10.69,4.5 0.02,0 0.05,0 0.07,0 0.02,0 0.04,0 0.07,0zm9.72 -29.38c-0.06,-0.06 -0.1,-0.12 -0.18,-0.17 0,0.15 0,0.29 0.01,0.44 0.06,-0.09 0.11,-0.18 0.17,-0.27z"/>
   <path class="fil1" d="M437.9 331.45c6.92,0 13.37,1.4 19.35,4.2 5.98,2.8 11.17,6.63 15.57,11.51 4.41,4.87 7.87,10.6 10.38,17.19 2.52,6.59 3.78,13.72 3.78,21.39 0,7.31 -1.28,14.17 -3.83,20.57 -2.56,6.41 -6.04,11.98 -10.44,16.72 -4.4,4.74 -9.6,8.48 -15.57,11.23 -5.98,2.75 -12.39,4.13 -19.23,4.13 -6.84,0 -13.25,-1.38 -19.23,-4.13 -5.98,-2.75 -11.17,-6.5 -15.57,-11.23 -4.41,-4.74 -7.89,-10.31 -10.44,-16.72 -2.56,-6.41 -3.83,-13.26 -3.83,-20.57 0,-7.67 1.26,-14.8 3.78,-21.39 2.52,-6.59 5.98,-12.32 10.38,-17.19 4.41,-4.87 9.6,-8.71 15.58,-11.51 5.98,-2.8 12.43,-4.2 19.35,-4.2zm0 99.48c5.19,0 9.85,-1.04 13.98,-3.11 4.13,-2.08 7.67,-5.05 10.62,-8.93 2.95,-3.88 5.21,-8.59 6.78,-14.14 1.57,-5.55 2.36,-11.75 2.36,-18.61 0,-7.22 -0.79,-13.74 -2.36,-19.56 -1.57,-5.82 -3.81,-10.78 -6.73,-14.89 -2.91,-4.11 -6.45,-7.26 -10.62,-9.47 -4.17,-2.21 -8.85,-3.32 -14.04,-3.32 -5.19,0 -9.87,1.11 -14.04,3.32 -4.17,2.21 -7.71,5.37 -10.62,9.47 -2.91,4.11 -5.15,9.07 -6.73,14.89 -1.57,5.82 -2.36,12.34 -2.36,19.56 0,6.86 0.79,13.06 2.36,18.61 1.57,5.55 3.81,10.26 6.73,14.14 2.91,3.88 6.45,6.86 10.62,8.93 4.17,2.08 8.85,3.11 14.04,3.11z"/>
   <path class="fil1" d="M202.03 378.42c4.87,0 8.96,-0.29 12.25,-0.88 3.29,-0.59 5.91,-1.51 7.85,-2.77 1.94,-1.26 3.34,-2.89 4.2,-4.87 0.86,-1.99 1.29,-4.33 1.29,-7.04l4.74 0 0 36.95 -4.74 0c0,-2.71 -0.38,-5.05 -1.15,-7.04 -0.77,-1.99 -2.12,-3.63 -4.06,-4.94 -1.94,-1.31 -4.56,-2.3 -7.85,-2.98 -3.29,-0.68 -7.47,-1.02 -12.52,-1.02l0 30.59c0,2.98 0.36,5.44 1.08,7.38 0.72,1.94 1.96,3.52 3.72,4.74 1.76,1.22 4.08,2.08 6.97,2.57 2.89,0.5 6.45,0.74 10.69,0.74 4.78,0 8.84,-0.34 12.18,-1.02 3.34,-0.68 6.14,-1.83 8.39,-3.45 2.26,-1.62 4.06,-3.77 5.41,-6.43 1.35,-2.66 2.48,-5.98 3.38,-9.95l5.14 0 -2.03 26.66 -84.05 0 0 -5.14c3.16,-0.09 5.71,-0.36 7.65,-0.81 1.94,-0.45 3.45,-1.22 4.53,-2.3 1.08,-1.08 1.8,-2.62 2.17,-4.6 0.36,-1.99 0.54,-4.56 0.54,-7.72l0 -63.07c0,-3.16 -0.16,-5.71 -0.47,-7.65 -0.32,-1.94 -0.95,-3.47 -1.89,-4.6 -0.95,-1.13 -2.32,-1.9 -4.13,-2.3 -1.81,-0.41 -4.15,-0.7 -7.04,-0.88l0 -5.14 78.23 0 1.22 23.82 -4.74 0c-0.54,-3.61 -1.42,-6.56 -2.64,-8.87 -1.22,-2.3 -2.89,-4.13 -5.01,-5.48 -2.12,-1.35 -4.8,-2.3 -8.05,-2.84 -3.25,-0.54 -7.17,-0.81 -11.78,-0.81l-17.19 0c-1.53,0 -2.3,0.77 -2.3,2.3l0 38.85z"/>
  </g>
 </g>
</svg>
