<?xml version="1.0" encoding="UTF-8"?>
<!DOCTYPE svg PUBLIC "-//W3C//DTD SVG 1.1//EN" "http://www.w3.org/Graphics/SVG/1.1/DTD/svg11.dtd">
<!-- Creator: CorelDRAW -->
<svg xmlns="http://www.w3.org/2000/svg" xml:space="preserve" width="695.444mm" height="183.001mm" version="1.1" style="shape-rendering:geometricPrecision; text-rendering:geometricPrecision; image-rendering:optimizeQuality; fill-rule:evenodd; clip-rule:evenodd"
viewBox="0 0 12860.06 3384.04"
 xmlns:xlink="http://www.w3.org/1999/xlink"
 xmlns:xodm="http://www.corel.com/coreldraw/odm/2003">
 <defs>
  <style type="text/css">
   <![CDATA[
    .fil4 {fill:white}
    .fil2 {fill:white;fill-rule:nonzero}
    .fil3 {fill:url(#id0)}
    .fil0 {fill:url(#id1)}
    .fil1 {fill:url(#id2);fill-rule:nonzero}
   ]]>
  </style>
  <linearGradient id="id0" gradientUnits="userSpaceOnUse" x1="129.44" y1="1692.02" x2="12730.62" y2="1692.02">
   <stop offset="0" style="stop-opacity:1; stop-color:#99FCAC"/>
   <stop offset="1" style="stop-opacity:1; stop-color:#08B99D"/>
  </linearGradient>
  <linearGradient id="id1" gradientUnits="userSpaceOnUse" xlink:href="#id0" x1="1689.64" y1="1692.29" x2="3560.5" y2="1692.29">
  </linearGradient>
  <linearGradient id="id2" gradientUnits="userSpaceOnUse" xlink:href="#id0" x1="3985.65" y1="1185.48" x2="11174.52" y2="1185.48">
  </linearGradient>
 </defs>
 <g id="Katman_x0020_1">
  <metadata id="CorelCorpID_0Corel-Layer"/>
  <path class="fil0" d="M1999.51 2398.14l0 -1286.52 -309.87 0 0 1578.3 309.87 0 0 -291.77zm125.18 -1411.7l438.19 0c389.83,0 705.85,316.02 705.85,705.85 0,389.83 -316.02,705.85 -705.85,705.85l-1.73 -0 -436.45 0 0 291.77 438.19 0c550.97,0 997.62,-446.65 997.62,-997.62 0,-550.97 -446.65,-997.62 -997.62,-997.62l-873.23 0 0 291.77 309.87 0 125.18 0zm438.19 125.18l-438.19 0 0 1161.35 438.19 0c320.7,0 580.67,-259.98 580.67,-580.68 0,-320.7 -259.98,-580.67 -580.67,-580.67z"/>
  <path class="fil1" d="M3985.65 1985.86l0 -1291.61 623.6 0c161.97,0 275.38,31.98 340.82,96.24 65.44,63.96 98.01,175.89 98.01,335.19l0 426.1c0,160.19 -32.87,272.71 -98.6,337.26 -65.44,64.55 -178.85,96.83 -340.23,96.83l-623.6 0zm142.13 -127.92l458.08 0c124.07,0 207.57,-21.02 249.62,-63.37 42.34,-42.05 63.37,-122.59 63.37,-241.03l0 -417.51c0,-124.66 -21.02,-208.46 -62.77,-250.51 -42.05,-42.34 -125.55,-63.37 -250.21,-63.37l-458.08 0 0 1035.78zm1190.34 127.92l0 -1291.61 906.09 0 0 136.8 -763.95 0 0 422.84 742.34 0 0 131.47 -742.34 0 0 465.48 763.95 0 0 135.02 -906.09 0zm1135.57 0l0 -1291.61 234.81 0 442.38 1150.96 438.24 -1150.96 236.59 0 0 1291.61 -142.13 0 0 -1171.1 -445.94 1171.1 -175.89 0 -445.94 -1171.1 0 1171.1 -142.13 0zm1664.71 0l0 -1291.61 143.91 0 0 1291.61 -143.91 0zm7.11 -1465.73l0 -151.01 131.47 0 0 151.01 -131.47 0zm1003.5 310.91l-412.18 0 0 517 412.18 0c107.49,0 177.96,-13.33 211.12,-39.97 33.46,-26.65 50.04,-74.32 50.04,-143.02l0 -151.01c0,-69.88 -15.99,-117.85 -48.27,-143.91 -31.98,-26.06 -103.04,-39.09 -212.9,-39.09zm-554.31 1154.81l0 -1291.61 583.03 0c145.09,0 244.88,21.62 299.66,64.55 54.78,42.93 82.02,119.63 82.02,230.07l0 195.13c0,67.81 -13.62,121.11 -41.16,159.6 -27.54,38.49 -69.29,62.48 -125.55,72.25 61.3,14.51 104.53,40.86 129.4,79.06 24.87,38.2 37.31,98.31 37.31,180.62l0 310.32 -149.24 0 0 -266.2c0,-92.39 -14.51,-154.86 -43.82,-187.73 -29.32,-32.57 -86.46,-48.86 -171.45,-48.86l-458.08 0 0 502.79 -142.13 0zm1201.3 -864.93c0,-165.52 31.68,-280.71 95.05,-345.56 63.37,-64.85 175,-97.12 335.49,-97.12l151.02 0c159.01,0 270.64,27.83 334.9,83.8 64.26,55.96 96.23,150.72 96.23,284.56l0 56.26 -147.46 0 0 -35.53c0,-97.71 -19.84,-164.34 -59.81,-200.17 -39.97,-35.83 -118.15,-53.89 -234.52,-53.89l-99.79 0c-77.88,0 -134.73,4.74 -170.56,14.21 -35.53,9.77 -65.14,25.76 -88.83,48.26 -23.69,21.91 -40.27,50.63 -50.04,86.17 -9.48,35.53 -14.21,100.38 -14.21,194.54l0 367.76c0,93.57 4.74,158.12 14.21,193.95 9.77,35.53 26.35,64.25 50.04,86.17 23.69,22.5 52.41,38.49 86.46,48.27 33.76,9.48 91.5,14.21 172.93,14.21l99.79 0c119.33,0 198.69,-18.65 238.07,-56.26 39.08,-37.61 58.92,-109.85 58.92,-216.16 0,-16.29 -0.3,-28.72 -0.59,-37.31 -0.3,-8.59 -0.59,-16.88 -1.19,-24.28l146.57 0 0 84.98c0,143.61 -31.09,243.7 -93.27,299.66 -62.18,56.26 -175,84.39 -337.86,84.39l-151.02 0c-160.49,0 -272.12,-32.57 -335.49,-97.42 -63.37,-64.85 -95.05,-180.03 -95.05,-345.56l0 -437.94zm1254.6 864.93l0 -1291.61 143.91 0 0 1291.61 -143.91 0zm7.11 -1465.73l0 -151.01 131.47 0 0 151.01 -131.47 0z"/>
  <path class="fil2" d="M4226.17 2689.71l-50 0 0 -203.7 -190.52 -256.45 60.02 0 155.17 214.46 154.97 -214.46 60.24 0 -189.88 255.6 0 204.55zm224.8 -163.3l199.38 0 -91.88 -248.01 -16.35 0 -91.14 248.01zm-112.56 163.3l170.05 -460.15 83.76 0 170.89 460.15 -52.54 0 -43.88 -117.73 -232.82 0 -42.93 117.73 -52.53 0zm460.68 0l0 -55.07 295.58 -359.51 -282.29 0 0 -45.57 336.09 0 0 53.8 -293.79 358.24 293.79 0 0 48.1 -349.38 0zm437.26 0l0 -460.15 51.27 0 0 460.15 -51.27 0zm162.56 0l0 -460.15 50 0 0 412.05 260.77 0 0 48.1 -310.77 0zm377.97 0l0 -460.15 51.27 0 0 460.15 -51.27 0zm162.56 0l0 -460.15 83.65 0 157.6 410.04 156.13 -410.04 84.29 0 0 460.15 -50.64 0 0 -417.21 -158.87 417.21 -62.66 0 -158.87 -417.21 0 417.21 -50.63 0zm751.83 -460.15l54.33 0 146.84 412.57 147.26 -412.57 54.12 0 -168.36 460.15 -65.83 0 -168.36 -460.15zm466.37 460.15l0 -460.15 322.8 0 0 48.74 -272.17 0 0 150.64 264.47 0 0 46.84 -264.47 0 0 165.83 272.17 0 0 48.1 -322.8 0zm555.72 -411.41l0 -48.74 344.32 0 0 48.74 -146.84 0 0 411.41 -51.27 0 0 -411.41 -146.21 0zm393.06 411.41l0 -460.15 322.8 0 0 48.74 -272.17 0 0 150.64 264.47 0 0 46.84 -264.47 0 0 165.83 272.17 0 0 48.1 -322.8 0zm404.56 0l0 -460.15 50.63 0 0 194.95 39.24 0 186.72 -194.95 67.09 0 -212.04 219.74 239.25 240.41 -69.52 0 -211.51 -215.73 -39.24 0 0 215.73 -50.63 0zm423.44 0l0 -460.15 78.49 0 249.38 410.67 0 -410.67 50.64 0 0 460.15 -78.49 0 -249.38 -411.31 0 411.31 -50.63 0zm684.74 -417.74l-28.48 0c-32.28,0 -55.17,1.79 -68.57,5.27 -13.4,3.48 -24.9,9.39 -34.6,17.62 -9.07,7.81 -15.4,18.36 -19.09,31.65 -3.69,13.29 -5.59,36.08 -5.59,68.36l0 130.39c0,32.17 1.9,54.75 5.59,67.83 3.69,13.08 10.02,23.53 19.09,31.33 9.7,8.23 21.2,14.14 34.6,17.62 13.4,3.48 36.29,5.27 68.57,5.27l28.48 0c32.28,0 55.28,-1.79 68.89,-5.27 13.61,-3.48 25.21,-9.39 34.92,-17.62 8.86,-7.59 15.09,-17.83 18.67,-30.59 3.59,-12.76 5.38,-35.55 5.38,-68.57l0 -130.91c0,-32.39 -1.9,-55.17 -5.59,-68.46 -3.69,-13.29 -10.02,-23.84 -19.09,-31.65 -9.49,-8.02 -20.89,-13.71 -34.28,-17.19 -13.4,-3.38 -36.4,-5.06 -68.89,-5.06zm-208.87 109.71c0,-58.86 12.13,-99.79 36.5,-123 24.26,-23.21 67.41,-34.81 129.44,-34.81l58.02 0c62.66,0 105.91,11.39 129.96,34.28 23.95,22.89 35.97,64.14 35.97,123.53l0 155.91c0,59.08 -12.24,100.11 -36.6,123.21 -24.37,23.1 -67.51,34.6 -129.33,34.6l-58.02 0c-62.03,0 -105.17,-11.5 -129.44,-34.6 -24.37,-23.1 -36.5,-64.14 -36.5,-123.21l0 -155.91zm486.2 308.03l0 -460.15 50 0 0 412.05 260.77 0 0 48.1 -310.77 0zm572.28 -417.74l-28.48 0c-32.28,0 -55.17,1.79 -68.57,5.27 -13.4,3.48 -24.9,9.39 -34.6,17.62 -9.07,7.81 -15.4,18.36 -19.09,31.65 -3.69,13.29 -5.59,36.08 -5.59,68.36l0 130.39c0,32.17 1.9,54.75 5.59,67.83 3.69,13.08 10.02,23.53 19.09,31.33 9.7,8.23 21.2,14.14 34.6,17.62 13.4,3.48 36.29,5.27 68.57,5.27l28.48 0c32.28,0 55.28,-1.79 68.89,-5.27 13.61,-3.48 25.21,-9.39 34.92,-17.62 8.86,-7.59 15.09,-17.83 18.67,-30.59 3.59,-12.76 5.38,-35.55 5.38,-68.57l0 -130.91c0,-32.39 -1.9,-55.17 -5.59,-68.46 -3.69,-13.29 -10.02,-23.84 -19.09,-31.65 -9.49,-8.02 -20.89,-13.71 -34.28,-17.19 -13.4,-3.38 -36.4,-5.06 -68.89,-5.06zm-208.87 109.71c0,-58.86 12.13,-99.79 36.5,-123 24.26,-23.21 67.41,-34.81 129.44,-34.81l58.02 0c62.66,0 105.91,11.39 129.96,34.28 23.95,22.89 35.97,64.14 35.97,123.53l0 155.91c0,59.08 -12.24,100.11 -36.6,123.21 -24.37,23.1 -67.51,34.6 -129.33,34.6l-58.02 0c-62.03,0 -105.17,-11.5 -129.44,-34.6 -24.37,-23.1 -36.5,-64.14 -36.5,-123.21l0 -155.91zm445.06 146.63l51.27 0 0 7.39c0,47.79 5.49,78.38 16.35,91.67 10.97,13.29 33.44,19.94 67.62,19.94l36.82 0c34.39,0 56.96,-6.65 67.94,-19.83 10.87,-13.18 16.35,-43.78 16.35,-91.78l0 -306.13 51.27 0 0 321.32c0,51.8 -10.02,88.82 -30.17,111.08 -20.15,22.26 -53.8,33.44 -101.06,33.44l-45.47 0c-48.74,0 -82.81,-11.5 -102.01,-34.5 -19.3,-23 -28.9,-64.14 -28.9,-123.32l0 -9.28zm414.47 161.4l0 -460.15 51.27 0 0 460.15 -51.27 0zm2.53 -522.18l0 -53.8 46.84 0 0 53.8 -46.84 0z"/>
  <path class="fil3" d="M1680.3 277.38l9499.45 0c771.61,0 1402.93,636.59 1402.93,1414.64 0,778.05 -631.32,1414.64 -1402.93,1414.64l-9499.45 0c-771.61,0 -1402.93,-636.59 -1402.93,-1414.64 0,-778.05 631.31,-1414.64 1402.93,-1414.64zm9499.45 -147.93l-9499.45 0c-857.83,0 -1550.86,707.52 -1550.86,1562.58 0,855.05 693.03,1562.57 1550.86,1562.57l9499.45 0c857.83,0 1550.86,-707.52 1550.86,-1562.58 0,-855.05 -693.03,-1562.57 -1550.86,-1562.57z"/>
  <path class="fil4" d="M1680.3 46.23l9499.45 0c903.72,0 1634.08,744.84 1634.08,1645.79 0,900.95 -730.36,1645.79 -1634.08,1645.79l-9499.45 0c-903.72,0 -1634.08,-744.84 -1634.08,-1645.79 0,-900.95 730.36,-1645.79 1634.08,-1645.79zm9499.45 -46.23l-9499.45 0c-929.23,0 -1680.3,765.55 -1680.3,1692.02 0,926.47 751.08,1692.02 1680.3,1692.02l9499.45 0c929.23,0 1680.3,-765.55 1680.3,-1692.02 0,-926.47 -751.08,-1692.02 -1680.3,-1692.02z"/>
 </g>
</svg>
